<svg width="648" height="337" viewBox="0 0 648 337" fill="none" xmlns="http://www.w3.org/2000/svg">
<g filter="url(#filter0_d_21_609)">
<mask id="mask0_21_609" style="mask-type:luminance" maskUnits="userSpaceOnUse" x="33" y="33" width="582" height="271">
<path d="M614.438 33H33.562V303.96H614.438V33Z" fill="white"/>
</mask>
<g mask="url(#mask0_21_609)">
<path d="M573.454 302.648V283.438H545.833V229.867H523.76V302.648H573.395H573.454ZM487.429 274.967H470.845L479.137 249.315L487.429 274.967ZM519.823 302.648L492.977 229.867H465.237L438.392 302.648H462.314L465.177 293.282H493.097L495.96 302.648H519.883H519.823ZM419.898 302.648L446.744 229.867H421.747L406.058 278.845L390.368 229.867H365.372L392.217 302.648H419.958H419.898ZM361.375 229.867H339.302V302.648H361.375V229.867ZM312.039 302.648V249.076H331.487V229.867H270.458V249.076H289.966V302.648H312.039ZM201.913 292.387C209.668 299.367 220.228 303.96 235.738 303.96C251.249 303.96 267.177 294.654 267.177 278.666C267.177 262.678 249.4 258.383 237.409 256.295C229.653 254.982 226.73 254.028 226.73 251.164C226.73 248.301 227.923 247.346 233.412 247.346C238.9 247.346 247.371 249.732 253.695 254.565L265.507 238.935C257.215 232.193 246.536 228.793 234.605 228.793C214.62 228.793 204.359 240.008 204.359 252.357C204.359 270.612 222.673 273.416 234.724 275.623C241.943 276.936 244.985 278.368 244.985 281.171C244.985 283.975 241.048 285.407 236.931 285.407C227.088 285.407 218.915 281.231 213.486 276.041L202.032 292.387H201.913ZM197.677 302.648V284.333H164.508V275.027H196.902V256.712H164.508V248.181H197.677V229.867H142.435V302.648H197.677ZM99.8405 302.648V275.027H132.234V256.712H99.8405V248.181H133.01V229.867H77.7676V302.648H99.8405Z" fill="white"/>
<path d="M236.991 154.998V156.191C236.991 171.642 236.991 187.093 236.991 202.544C236.991 203.618 236.434 204.155 235.32 204.155C228.221 204.155 221.182 204.155 214.083 204.155C212.949 204.155 212.591 203.797 212.591 202.663C212.591 177.011 212.591 151.299 212.591 125.647C212.591 124.454 212.949 124.155 214.083 124.155C224.284 124.155 234.545 124.155 244.746 124.155C245.82 124.155 246.297 124.513 246.596 125.527C250.891 138.115 255.186 150.643 259.541 163.171C259.66 163.529 259.78 163.827 260.018 164.423C260.257 163.767 260.436 163.35 260.555 162.932C264.85 150.523 269.146 138.055 273.381 125.587C273.739 124.454 274.336 124.155 275.469 124.155C285.551 124.155 295.693 124.155 305.775 124.155H307.386V204.035C306.849 204.035 306.431 204.095 305.954 204.095C298.855 204.095 291.696 204.095 284.597 204.095C283.344 204.095 283.046 203.737 283.046 202.544C283.046 187.093 283.046 171.642 283.046 156.191V154.878C283.046 154.878 282.926 154.878 282.867 154.878C282.33 156.31 281.793 157.802 281.256 159.293C276.126 173.79 270.995 188.286 265.924 202.783C265.566 203.797 265.149 204.155 264.015 204.155C261.271 204.095 258.527 204.095 255.783 204.155C254.828 204.155 254.351 203.856 254.053 202.962C248.803 187.988 243.493 173.074 238.184 158.1C237.826 157.026 237.408 156.012 237.051 154.998C236.991 154.998 236.931 154.998 236.872 154.998" fill="white"/>
<path d="M426.937 145.99C423.954 155.296 421.031 164.304 418.048 173.432H435.766C432.783 164.304 429.92 155.296 426.877 145.99M471.62 204.035C470.964 204.035 470.486 204.095 470.069 204.095C462.254 204.095 454.379 204.095 446.564 204.095C445.61 204.095 445.132 203.856 444.894 202.902C444.178 200.217 443.283 197.593 442.507 194.908C442.269 194.073 441.971 193.774 441.016 193.774C431.65 193.774 422.284 193.774 412.918 193.774C412.023 193.774 411.665 194.073 411.426 194.908C410.651 197.652 409.756 200.396 408.98 203.141C408.802 203.737 408.563 204.095 407.847 204.095C399.614 204.095 391.382 204.095 383.09 204.095C382.911 204.095 382.732 204.035 382.314 203.976C382.493 203.499 382.612 203.021 382.732 202.604C390.905 180.471 399.077 158.338 407.25 136.206C408.623 132.507 409.995 128.868 411.307 125.169C411.605 124.394 411.963 124.155 412.798 124.155C422.224 124.155 431.65 124.155 441.016 124.155C441.971 124.155 442.328 124.573 442.627 125.408C448.891 142.47 455.214 159.472 461.478 176.534C464.7 185.244 467.921 193.953 471.083 202.663C471.262 203.081 471.381 203.499 471.62 204.155" fill="white"/>
<path d="M469.532 192.701C473.768 186.675 477.944 180.71 482.179 174.625C482.955 175.281 483.611 175.878 484.327 176.474C491.545 182.32 499.778 185.184 509.025 184.826C510.814 184.766 512.604 184.17 514.274 183.573C515.587 183.096 516.541 182.082 516.601 180.471C516.601 178.86 515.825 177.667 514.453 177.13C512.186 176.235 509.86 175.4 507.474 174.863C501.687 173.491 495.9 172.358 490.173 170.866C486.355 169.852 482.895 168.063 479.793 165.557C473.947 160.844 471.68 154.52 472.336 147.302C473.35 135.55 480.509 128.749 491.128 125.11C497.392 122.962 503.954 122.664 510.516 123.201C517.317 123.738 523.879 125.289 530.083 128.331C533.364 129.942 536.467 131.851 539.39 134.297C535.095 140.024 530.799 145.691 526.444 151.478C526.146 151.299 525.907 151.239 525.669 151.06C519.942 146.944 513.559 144.438 506.519 143.782C504.371 143.603 502.104 143.782 499.897 144.2C497.988 144.498 497.034 145.87 496.914 147.421C496.795 149.032 497.511 150.285 499.36 150.881C502.045 151.776 504.849 152.492 507.652 152.969C514.095 154.222 520.658 155.177 526.683 157.921C529.188 159.054 531.575 160.426 533.782 162.037C538.376 165.497 540.822 170.27 541.12 176.056C541.537 184.17 539.39 191.329 533.364 197.056C529.606 200.575 525.013 202.663 520.061 203.976C513.26 205.765 506.4 205.825 499.48 205.229C492.559 204.632 485.878 202.962 479.614 199.8C475.975 197.95 472.574 195.683 469.413 192.76" fill="white"/>
<path d="M555.437 174.804C556.81 175.878 558.122 177.071 559.554 178.025C566.355 182.857 573.871 185.184 582.223 184.886C584.073 184.826 585.982 184.289 587.652 183.514C590.575 182.141 590.694 178.741 587.771 177.25C585.564 176.116 583.118 175.46 580.672 174.863C575.184 173.551 569.636 172.537 564.147 171.165C560.091 170.151 556.332 168.301 553.051 165.676C547.026 160.844 544.759 154.401 545.534 146.944C546.668 135.371 553.827 128.689 564.326 125.11C570.888 122.843 577.689 122.664 584.55 123.26C590.694 123.797 596.66 125.11 602.149 127.794C605.489 129.405 608.532 131.553 611.694 133.462C612.29 133.82 612.588 134.178 612.052 134.893C607.995 140.203 603.938 145.572 599.882 150.941C599.762 151.06 599.703 151.239 599.583 151.418C598.927 151.001 598.45 150.643 597.973 150.285C591.351 145.99 584.192 143.365 576.198 143.544C574.945 143.544 573.692 143.842 572.559 144.2C571.127 144.618 570.232 145.632 570.113 147.183C569.994 148.853 570.769 150.046 572.201 150.523C575.005 151.418 577.928 152.254 580.851 152.79C586.876 153.984 592.961 154.938 598.688 157.205C601.731 158.398 604.594 159.83 607.1 161.918C611.634 165.617 614.14 170.389 614.378 176.236C614.676 183.156 613.125 189.479 608.532 194.848C604.535 199.621 599.225 202.246 593.319 203.797C586.519 205.587 579.598 205.646 572.619 205.05C565.519 204.393 558.719 202.842 552.455 199.382C549.233 197.593 546.37 195.266 543.327 193.238C542.79 192.88 542.671 192.522 543.089 191.925C547.086 186.258 551.023 180.59 555.02 174.983C555.079 174.863 555.258 174.744 555.378 174.684" fill="white"/>
<path d="M344.731 144.558C344.671 144.737 344.611 144.856 344.611 144.975C344.611 149.151 344.611 153.268 344.611 157.444C344.611 158.219 345.088 158.219 345.625 158.219C350.338 158.219 355.051 158.219 359.764 158.219C362.449 158.219 364.775 157.145 366.088 154.64C368.534 149.987 365.372 144.618 360.122 144.498C355.29 144.439 350.458 144.498 345.566 144.498C345.267 144.498 345.029 144.498 344.731 144.558ZM344.552 178.502V180.292C344.552 187.749 344.552 195.147 344.552 202.604C344.552 203.856 344.194 204.155 342.941 204.155C335.842 204.155 328.743 204.155 321.584 204.155C320.331 204.155 320.033 203.797 320.033 202.604C320.033 177.011 320.033 151.359 320.033 125.766C320.033 124.215 320.033 124.215 321.643 124.215C335.245 124.215 348.907 124.215 362.508 124.215C367.758 124.215 372.829 125.05 377.482 127.496C385.894 131.911 390.248 139.069 391.263 148.376C391.859 153.566 391.263 158.696 388.996 163.469C385.058 171.94 378.138 176.474 369.13 177.966C366.863 178.323 364.537 178.443 362.27 178.502C356.841 178.562 351.352 178.502 345.924 178.502H344.432" fill="white"/>
<path d="M113.8 182.201C112.07 186.317 109.684 190.016 106.701 193.238C100.139 200.396 91.9656 204.214 82.3609 205.229C71.6824 206.302 61.5408 204.572 52.3537 198.845C41.8541 192.283 35.7095 182.798 34.0391 170.568C32.4284 159.114 34.6357 148.495 41.6751 139.189C47.9987 130.837 56.5296 126.005 66.6712 123.917C75.739 122.067 84.6875 122.425 93.3974 125.826C103.002 129.584 109.505 136.504 113.681 145.811C113.681 145.93 113.681 146.049 113.8 146.347C106.88 149.569 99.9596 152.79 93.1588 155.952C92.1446 154.222 91.3094 152.492 90.1759 151.001C83.0172 141.814 68.8189 142.231 62.197 151.955C57.1858 159.233 56.9472 167.048 61.1232 174.744C66.7906 185.244 81.5257 187.451 89.5197 178.264C90.7725 176.772 91.6673 174.983 92.6218 173.253C92.9201 172.656 93.1588 172.477 93.815 172.775C100.377 175.818 106.999 178.86 113.621 181.903C113.681 181.903 113.74 182.022 113.919 182.201" fill="white"/>
<path d="M160.272 138.413C145.835 138.413 134.501 149.808 134.56 164.483C134.56 177.727 145.06 189.897 160.392 189.957C174.65 190.016 186.104 178.324 186.104 164.066C186.104 149.867 174.53 138.413 160.272 138.413ZM160.511 205.766C149.952 205.408 140.287 202.723 131.876 196.101C123.464 189.479 118.632 180.71 117.2 170.091C115.888 160.248 117.499 150.882 122.748 142.41C128.356 133.343 136.469 127.615 146.671 124.752C158.125 121.531 169.519 122.008 180.436 126.959C194.157 133.223 202.151 143.961 203.941 158.995C205.253 169.733 203.046 179.755 196.544 188.584C190.22 197.175 181.57 202.186 171.189 204.393C167.67 205.109 164.09 205.348 160.511 205.825" fill="white"/>
<path d="M309.831 116.042H289.131V103.395H288.892C288.773 103.574 288.653 103.872 288.534 104.111C287.222 107.75 285.909 111.389 284.656 115.088C284.418 115.863 284.06 116.161 283.165 116.161C273.978 116.161 264.731 116.161 255.544 116.161C254.768 116.161 254.47 115.863 254.172 115.147C252.8 111.15 251.368 107.153 249.757 103.216V116.102H228.937C228.937 115.624 228.877 115.147 228.877 114.67C228.877 102.5 228.877 90.3301 228.877 78.1601C228.877 76.5494 228.877 76.5494 230.488 76.5494C239.079 76.5494 247.61 76.5494 256.2 76.5494C257.274 76.5494 257.692 76.9073 258.049 77.9215C261.629 88.4807 265.328 99.0399 268.967 109.599C269.086 109.957 269.265 110.315 269.504 110.912C270.697 107.392 271.83 104.111 272.964 100.77C275.589 93.1339 278.213 85.4979 280.838 77.8618C281.137 76.9073 281.554 76.4897 282.628 76.4897C291.338 76.4897 299.988 76.4897 308.698 76.4897C309.712 76.4897 310.01 76.788 310.01 77.8022C310.01 90.1511 310.01 102.56 310.01 114.909C310.01 115.267 310.01 115.624 309.951 116.042" fill="white"/>
<path d="M312.039 34.0739C312.039 34.6108 312.039 35.0284 312.039 35.4459C312.039 46.2438 312.039 57.0416 312.039 67.8395C312.039 69.0326 311.681 69.3309 310.547 69.2712C305.656 69.2712 300.764 69.2712 295.872 69.2712C294.261 69.2712 294.261 69.2712 294.261 67.7202C294.261 64.2004 294.261 60.6807 294.082 57.1013C293.963 57.3399 293.844 57.5785 293.724 57.8172C292.471 61.2772 291.219 64.7373 290.026 68.1974C289.787 68.9729 289.429 69.2712 288.534 69.2712C281.196 69.2712 273.799 69.2712 266.461 69.2712C265.626 69.2712 265.268 68.9729 264.97 68.1974C263.777 64.7373 262.584 61.3369 261.331 57.9365C261.211 57.5785 261.032 57.2206 260.734 56.9223V69.2116C260.257 69.2116 259.839 69.2712 259.422 69.2712C254.351 69.2712 249.34 69.2712 244.269 69.2712C243.314 69.2712 242.957 69.0326 242.957 67.9588C242.957 57.0416 242.957 46.1245 242.957 35.2073C242.957 34.909 242.957 34.5511 243.016 34.1335C243.493 34.1335 243.911 34.0739 244.329 34.0739C251.607 34.0739 258.885 34.0739 266.163 34.0739C267.058 34.0739 267.475 34.3125 267.774 35.2073C270.757 44.0962 273.859 52.9253 276.901 61.7545C277.02 62.1124 277.14 62.53 277.378 63.1266C277.557 62.6493 277.736 62.3511 277.856 62.0528C280.958 53.1043 284 44.2155 287.043 35.267C287.341 34.3721 287.759 34.0739 288.773 34.0739C295.991 34.0739 303.269 34.0739 310.488 34.0739H311.86H312.039Z" fill="white"/>
<path d="M341.688 105.542C342.166 105.542 342.524 105.542 342.941 105.542C346.759 105.542 350.637 105.542 354.455 105.542C358.034 105.542 360.48 103.275 360.54 99.875C360.54 96.3552 358.273 93.969 354.634 93.9093C350.697 93.8496 346.7 93.9093 342.762 93.9093C341.748 93.9093 341.509 94.2672 341.569 95.1621C341.569 98.2046 341.569 101.307 341.569 104.349C341.569 104.707 341.569 105.065 341.688 105.483M320.809 116.161V76.6685C321.226 76.6685 321.644 76.6089 322.121 76.6089C333.873 76.6089 345.626 76.6089 357.378 76.6089C361.494 76.6089 365.491 77.3248 369.25 79.1145C377.005 82.9325 380.942 89.3754 381.718 97.8466C382.195 103.574 381.002 109.002 377.661 113.835C376.528 115.505 375.275 116.221 373.127 116.221C356.304 116.102 339.421 116.221 322.598 116.221H320.868L320.809 116.161Z" fill="white"/>
<path d="M168.505 116.161H150.608C148.381 116.161 147.208 115.028 147.088 112.761C146.194 95.4604 156.753 81.0235 173.636 76.8475C184.433 74.163 194.933 75.0578 204.717 80.7252C214.978 86.6312 220.526 95.699 221.599 107.451C221.838 109.957 221.599 112.522 221.599 115.087C221.599 115.744 221.48 116.221 220.585 116.221C213.904 116.221 207.163 116.221 200.481 116.221C200.362 116.221 200.242 116.221 200.063 116.102C200.242 114.968 200.481 113.835 200.6 112.641C201.078 106.258 199.288 100.651 193.919 96.7728C185.567 90.8072 170.593 93.7304 168.624 107.929C168.266 110.554 168.624 113.298 168.624 116.161" fill="white"/>
<path d="M571.127 116.161H569.517C555.855 116.161 542.194 116.161 528.533 116.161C527.697 116.161 526.743 115.982 525.967 115.624C522.149 114.073 518.749 111.985 516.303 108.585C511.59 102.023 512.067 91.9407 517.437 85.2592C521.374 80.3673 526.624 77.6231 532.649 76.4896C545.714 74.1034 557.943 76.1914 568.98 83.9467C569.457 84.3047 569.934 84.6626 570.531 85.1399C566.773 90.0913 563.074 94.9832 559.375 99.875C555.14 96.7729 550.546 94.5656 545.475 93.7304C543.029 93.3128 540.524 93.3724 538.018 93.3128C537.481 93.3128 536.944 93.5514 536.407 93.7304C535.155 94.2076 534.379 95.0428 534.319 96.4149C534.26 97.787 534.976 98.7416 536.109 99.1591C538.257 99.875 540.524 100.531 542.731 100.949C548.577 102.082 554.424 102.977 559.912 105.363C564.207 107.272 567.966 109.838 570.233 114.133C570.531 114.67 570.77 115.266 571.127 116.102" fill="white"/>
<path d="M496.855 99.9346C493.156 97.2501 489.278 95.3411 485.043 94.2076C481.941 93.3724 478.838 92.8355 475.557 93.3127C475.378 93.3127 475.14 93.3127 474.961 93.3724C472.992 93.79 471.859 94.8041 471.739 96.3552C471.62 97.787 472.455 99.0398 474.483 99.5767C477.705 100.412 480.986 101.068 484.267 101.724C488.741 102.619 493.216 103.574 497.392 105.423C501.389 107.153 504.908 109.539 507.235 113.357C507.593 113.954 507.891 114.67 508.189 115.326C508.249 115.505 508.249 115.684 508.368 116.161H499.897C488.503 116.161 477.108 116.161 465.714 116.161C464.998 116.161 464.163 115.982 463.507 115.684C458.555 113.656 454.26 110.792 452.053 105.662C448.592 97.608 450.68 86.9891 459.569 80.8445C463.805 77.9213 468.577 76.4299 473.589 75.893C481.94 74.9982 490.173 75.893 497.928 79.2934C501.15 80.7252 504.073 82.8132 507.116 84.6029C507.593 84.9011 507.891 85.2591 507.474 85.8557C503.954 90.5089 500.434 95.1621 496.795 99.9943" fill="white"/>
<path d="M339.063 58.7716C342.941 58.7716 346.64 58.8312 350.338 58.7716C353.142 58.7119 355.051 56.6836 355.171 54.1184C355.29 51.4935 353.56 49.1669 350.995 49.0476C347.117 48.8686 343.18 49.0476 339.242 49.0476C339.183 49.0476 339.123 49.1669 339.063 49.2265V58.8909V58.7716ZM321.286 69.1518V34.1334C321.703 34.1334 322.061 34.0738 322.479 34.0738C332.68 34.0738 342.822 34.0141 353.023 34.0738C359.227 34.0738 364.656 36.1021 368.832 40.9939C375.215 48.5107 374.678 61.3965 367.639 68.1377C366.863 68.8535 366.028 69.2711 364.954 69.2115C350.875 69.2115 336.856 69.2115 322.777 69.2115C322.3 69.2115 321.823 69.2115 321.286 69.1518Z" fill="white"/>
<path d="M144.523 95.4605C138.617 98.2047 132.711 100.949 126.745 103.753C126.626 103.455 126.507 103.335 126.447 103.156C124.001 97.4889 119.706 94.1481 113.501 93.9095C107.059 93.6708 102.226 96.6537 99.1839 102.321C97.0959 106.199 96.738 110.375 97.5732 114.67C97.6328 115.088 97.7521 115.505 97.8118 115.982C97.6328 116.042 97.5135 116.102 97.3942 116.102C91.9654 116.102 86.5963 116.042 81.1676 115.982C79.9745 115.982 78.7217 115.863 77.5286 115.923C76.6337 115.923 76.2758 115.744 76.1565 114.73C74.1281 96.4747 85.2839 80.6061 103.241 76.6091C111.771 74.7 120.183 74.9387 128.296 78.4584C135.813 81.7395 140.943 87.4069 144.284 94.7447C144.344 94.9236 144.404 95.1026 144.523 95.4605Z" fill="white"/>
<path d="M439.525 116.161H438.213C432.128 116.161 426.102 116.161 420.017 116.161C418.944 116.161 418.586 115.803 418.287 114.849C416.319 108.645 414.29 102.44 412.262 96.1763C412.262 96.057 412.143 95.8781 412.023 95.5201C411.844 95.9974 411.665 96.2956 411.546 96.5939C409.518 102.798 407.549 108.943 405.521 115.147C405.342 115.803 405.103 116.161 404.328 116.161C397.944 116.161 391.561 116.161 385.178 116.161C384.999 116.161 384.76 116.161 384.402 116.102C384.701 115.147 384.999 114.312 385.297 113.477C389.652 101.605 394.067 89.7931 398.362 77.9214C398.72 76.9669 399.138 76.5493 400.271 76.5493C408.086 76.5493 415.901 76.5493 423.656 76.5493C424.611 76.5493 425.029 76.7283 425.386 77.7424C429.92 90.151 434.514 102.5 439.048 114.849C439.167 115.207 439.286 115.624 439.465 116.161" fill="white"/>
<path d="M218.199 69.0922C220.048 61.8141 219.452 55.1325 212.651 50.7776C207.64 47.6158 202.271 47.9141 197.379 51.2549C192.308 54.7149 190.817 60.442 192.666 69.0922C192.248 69.0922 191.89 69.2115 191.533 69.2115C186.223 69.2115 180.854 69.2115 175.545 69.2115C174.53 69.2115 174.172 68.9729 173.993 67.899C171.428 50.7776 182.405 36.0424 199.586 33.5369C209.072 32.1648 217.96 33.7158 225.775 39.5025C233.113 44.9909 236.812 52.5673 237.17 61.6351C237.289 63.7231 237.05 65.8111 236.872 67.899C236.872 68.5553 236.752 69.1518 235.798 69.1518C230.13 69.1518 224.463 69.1518 218.796 69.1518C218.617 69.1518 218.497 69.1518 218.199 69.0325" fill="white"/>
<path d="M481.464 69.1519C480.867 69.1519 480.39 69.2116 479.913 69.2116C470.069 69.2116 460.166 69.4502 450.323 69.1519C444.357 68.973 439.048 66.5867 435.051 62.0528C430.338 56.6837 430.577 47.3773 435.409 41.4116C439.108 36.8777 444.059 34.5511 449.667 33.7159C459.152 32.2842 468.28 33.7159 476.632 38.6078C477.944 39.3833 479.197 40.3378 480.569 41.2923C477.347 45.5876 474.245 49.7039 471.083 53.8202C469.473 52.8657 467.981 51.9112 466.371 51.1357C462.433 49.167 458.257 47.9738 453.783 48.2125C452.888 48.2125 452.053 48.4511 451.218 48.7494C450.263 49.1073 449.726 49.8232 449.726 50.897C449.726 51.9112 450.084 52.806 451.039 53.1043C453.127 53.7605 455.274 54.4167 457.422 54.8343C462.553 55.8485 467.683 56.624 472.396 58.9506C476.453 60.9193 479.674 63.6635 481.106 68.1378C481.165 68.3764 481.225 68.615 481.344 69.0326" fill="white"/>
<path d="M534.677 69.1519C534.021 69.1519 533.603 69.2116 533.186 69.2116C523.223 69.2116 513.32 69.4502 503.357 69.1519C497.451 68.9729 492.142 66.5867 488.205 61.9931C482.836 55.7292 483.969 45.2893 490.472 39.3833C494.528 35.6846 499.42 33.9545 504.73 33.4176C512.783 32.5824 520.598 33.7159 527.876 37.5339C529.905 38.6077 531.754 39.9202 533.842 41.2326C530.561 45.5876 527.399 49.7038 524.237 53.9395C523.76 53.6412 523.402 53.4026 523.044 53.1043C518.451 50.0618 513.38 48.2721 507.832 48.1528C506.818 48.1528 505.744 48.3914 504.789 48.6897C503.715 48.988 503.059 49.6442 502.94 50.8373C502.821 52.0901 503.417 52.985 504.491 53.2832C506.519 53.9395 508.607 54.4764 510.695 54.894C515.587 55.8485 520.539 56.624 525.132 58.712C529.129 60.5613 532.47 63.1266 534.14 67.3622C534.319 67.8394 534.439 68.3764 534.677 69.0922" fill="white"/>
<path d="M422.821 69.2115H421.151C416.378 69.2115 411.606 69.1519 406.833 69.2115C405.342 69.2115 404.805 68.7343 404.387 67.4218C402.717 62.1124 400.987 56.8029 399.257 51.4935C399.137 51.1356 399.018 50.718 398.779 50.1214C398.6 50.6583 398.422 50.9566 398.362 51.2549C396.572 56.8029 394.782 62.2914 392.993 67.8394C392.694 68.7939 392.277 69.2115 391.203 69.1519C386.132 69.1519 381.121 69.1519 376.05 69.1519C375.633 69.1519 375.275 69.1518 374.678 69.0922C375.454 66.9446 376.17 64.9759 376.885 62.9476C380.286 53.7605 383.686 44.633 387.027 35.4459C387.445 34.3124 387.982 33.9545 389.175 33.9545C395.677 34.0141 402.18 33.9545 408.682 33.9545C409.458 33.9545 409.876 34.1334 410.174 34.909C414.231 45.9454 418.287 56.9223 422.344 67.9587C422.463 68.257 422.523 68.5553 422.642 69.0922" fill="white"/>
<path d="M171.548 50.1215C166.417 52.5077 161.406 54.8343 156.335 57.2206C156.216 57.0416 156.097 56.9223 156.037 56.803C153.83 51.7322 149.534 48.7494 144.523 48.809C139.035 48.8687 134.322 52.0901 132.294 57.2206C130.862 60.8 130.802 64.439 131.876 68.1378C131.995 68.436 132.055 68.7343 132.174 69.2116C131.637 69.2116 131.22 69.2712 130.802 69.2712C125.612 69.2712 120.362 69.2712 115.172 69.2712C114.039 69.2712 113.561 68.9729 113.382 67.7798C111.354 52.1498 119.766 38.0708 136.052 34.1335C143.509 32.3438 150.906 32.6421 158.006 35.8039C164.389 38.6674 168.684 43.6189 171.548 50.1215Z" fill="white"/>
<path d="M177.394 182.201C172.86 186.377 167.73 188.584 161.466 189.002C161.824 188.525 162.003 188.226 162.241 187.988C164.807 185.422 167.372 182.798 169.937 180.292C170.176 180.053 170.772 179.815 171.071 179.874C173.099 180.59 175.127 181.366 177.394 182.201Z" fill="white"/>
<path d="M185.09 165.318C184.791 171.463 182.525 176.593 178.408 181.247C177.573 178.98 176.738 176.892 176.022 174.863C175.962 174.625 176.141 174.148 176.32 173.909C179.064 171.105 181.809 168.361 184.613 165.617C184.672 165.557 184.791 165.497 185.09 165.378" fill="white"/>
<path d="M159.019 188.942C152.934 188.644 147.804 186.377 143.21 182.201C145.477 181.366 147.506 180.531 149.534 179.815C149.773 179.755 150.25 179.934 150.489 180.113C153.292 182.857 156.037 185.661 158.781 188.405C158.84 188.465 158.9 188.584 159.019 188.883" fill="white"/>
<path d="M135.932 165.378C136.589 166.153 137.245 166.989 137.961 167.705C139.929 169.733 141.958 171.702 143.986 173.67C144.523 174.207 144.702 174.625 144.404 175.341C143.688 177.19 142.972 179.039 142.196 181.187C138.02 176.653 136.052 171.463 135.396 165.736C135.574 165.617 135.753 165.497 135.932 165.378Z" fill="white"/>
<path d="M177.274 145.99C175.007 146.825 173.098 147.6 171.189 148.316C170.891 148.435 170.414 148.376 170.175 148.197C167.312 145.333 164.448 142.41 161.406 139.308C167.55 139.785 172.621 141.993 177.274 145.99Z" fill="white"/>
<path d="M184.732 162.872C181.928 160.009 179.064 157.145 176.261 154.222C176.022 153.984 175.903 153.387 176.022 153.029C176.678 151.12 177.454 149.211 178.289 147.063C182.524 151.538 184.672 156.668 185.09 162.634C184.97 162.693 184.851 162.753 184.732 162.872Z" fill="white"/>
<path d="M135.455 162.813C135.932 156.787 138.02 151.657 142.196 147.183C143.031 149.33 143.807 151.359 144.463 153.327C144.583 153.566 144.463 154.043 144.225 154.282C141.48 157.086 138.736 159.83 135.932 162.634C135.873 162.693 135.753 162.753 135.455 162.872" fill="white"/>
<path d="M143.449 146.109C145.657 142.887 153.71 139.368 158.721 139.427C158.483 139.726 158.363 140.024 158.184 140.203C155.738 142.708 153.233 145.154 150.787 147.72C150.19 148.316 149.653 148.555 148.759 148.197C147.029 147.481 145.239 146.825 143.449 146.168" fill="white"/>
<path d="M175.545 173.551C174.65 171.224 173.874 169.136 173.099 167.048C176.439 164.841 179.959 164.006 184.075 164.722C181.272 167.645 178.468 170.509 175.545 173.551Z" fill="white"/>
<path d="M160.929 187.988C160.153 183.752 161.048 180.232 163.255 176.892C165.343 177.667 167.431 178.443 168.863 179.039C166.298 181.903 163.673 184.886 160.869 187.988" fill="white"/>
<path d="M184.016 163.409C179.84 164.185 176.38 163.23 173.039 161.083C173.815 159.114 174.59 157.026 175.306 155.057C178.17 157.861 181.033 160.546 184.016 163.409Z" fill="white"/>
<path d="M136.708 164.781C140.586 164.006 144.046 165.08 147.446 167.168C146.671 169.196 145.895 171.224 145.179 173.193C142.316 170.389 139.512 167.645 136.708 164.841" fill="white"/>
<path d="M157.23 151.359C155.142 150.583 153.173 149.808 151.264 149.092C154.008 146.288 156.753 143.484 159.497 140.68C160.332 143.365 159.497 147.6 157.23 151.359Z" fill="white"/>
<path d="M136.768 163.529C139.512 160.725 142.256 157.921 145.12 154.998C145.895 157.026 146.611 158.935 147.327 160.904C147.327 161.023 147.148 161.381 146.909 161.5C144.105 163.35 139.929 164.125 136.768 163.529Z" fill="white"/>
<path d="M160.75 140.799C163.494 143.365 166.357 146.049 169.459 148.913C167.192 149.748 165.224 150.523 163.255 151.299C161.048 147.899 160.093 144.319 160.75 140.799Z" fill="white"/>
<path d="M157.23 176.892C159.497 180.232 160.273 183.752 159.676 187.451C156.932 184.766 154.128 182.082 151.145 179.218C153.293 178.383 155.261 177.667 157.23 176.892Z" fill="white"/>
<path d="M154.665 157.265C151.324 154.162 147.983 151.06 144.702 148.018C144.762 147.899 144.881 147.779 144.941 147.72C148.878 149.211 152.875 150.702 156.932 152.254C156.097 154.103 155.321 155.833 154.665 157.265Z" fill="white"/>
<path d="M143.927 179.278C145.418 175.4 146.85 171.523 148.401 167.466C150.25 168.241 151.98 169.017 153.531 169.673C150.37 172.954 147.268 176.176 144.165 179.397C144.106 179.397 143.986 179.278 143.927 179.278Z" fill="white"/>
<path d="M172.084 160.784C170.235 159.949 168.505 159.174 167.073 158.517C170.175 155.236 173.278 152.015 176.32 148.734L176.559 148.913C175.067 152.79 173.576 156.728 172.084 160.784Z" fill="white"/>
<path d="M175.127 180.352C171.309 178.92 167.491 177.429 163.554 175.937C164.389 174.088 165.164 172.417 165.701 171.105C168.923 174.028 172.204 176.951 175.485 179.875C175.366 179.994 175.246 180.173 175.127 180.292" fill="white"/>
<path d="M160.75 162.813V149.032C160.809 149.032 160.869 149.032 160.928 148.973C161.704 150.703 162.539 152.433 163.315 154.163C163.852 155.356 164.389 156.489 164.866 157.682C164.985 158.04 164.985 158.637 164.747 158.876C163.494 160.188 162.181 161.441 160.75 162.813Z" fill="white"/>
<path d="M175.306 164.901C172.323 166.273 169.34 167.645 166.298 168.957C166.119 169.017 165.701 168.957 165.522 168.838C164.15 167.526 162.838 166.213 161.346 164.722H175.246C175.246 164.781 175.246 164.901 175.306 164.96" fill="white"/>
<path d="M159.676 165.736V179.039C159.616 179.039 159.557 179.099 159.497 179.159C159.139 178.443 158.841 177.727 158.483 177.011C157.588 174.983 156.693 172.954 155.739 170.986C155.381 170.15 155.381 169.614 156.096 169.017C157.23 167.943 158.304 166.75 159.378 165.617C159.497 165.676 159.616 165.736 159.676 165.796" fill="white"/>
<path d="M145.179 163.409C145.835 163.111 146.492 162.753 147.208 162.455C149.296 161.5 151.383 160.605 153.471 159.591C154.307 159.174 154.784 159.353 155.321 159.949C156.395 161.083 157.588 162.216 159.02 163.588H145.299C145.299 163.588 145.299 163.469 145.239 163.409" fill="white"/>
</g>
</g>
<defs>
<filter id="filter0_d_21_609" x="0.707024" y="0.182732" width="646.562" height="336.632" filterUnits="userSpaceOnUse" color-interpolation-filters="sRGB">
<feFlood flood-opacity="0" result="BackgroundImageFix"/>
<feColorMatrix in="SourceAlpha" type="matrix" values="0 0 0 0 0 0 0 0 0 0 0 0 0 0 0 0 0 0 127 0" result="hardAlpha"/>
<feOffset/>
<feGaussianBlur stdDeviation="16.4275"/>
<feComposite in2="hardAlpha" operator="out"/>
<feColorMatrix type="matrix" values="0 0 0 0 0 0 0 0 0 0 0 0 0 0 0 0 0 0 0.25 0"/>
<feBlend mode="normal" in2="BackgroundImageFix" result="effect1_dropShadow_21_609"/>
<feBlend mode="normal" in="SourceGraphic" in2="effect1_dropShadow_21_609" result="shape"/>
</filter>
</defs>
</svg>
